<mxfile host="app.diagrams.net" agent="Mozilla/5.0 (Windows NT 10.0; Win64; x64) AppleWebKit/537.36 (KHTML, like Gecko) Chrome/123.0.0.0 Safari/537.36 Edg/123.0.0.0" version="26.2.3">
  <diagram name="第 1 页" id="CN1bkAVNUNSqw8Xy8RyV">
    <mxGraphModel dx="1036" dy="574" grid="1" gridSize="10" guides="1" tooltips="1" connect="1" arrows="1" fold="1" page="1" pageScale="1" pageWidth="827" pageHeight="1169" math="0" shadow="0">
      <root>
        <mxCell id="0" />
        <mxCell id="1" parent="0" />
        <mxCell id="pN44KU4ayDY2uJZS332P-33" value="医生" style="text;html=1;align=center;verticalAlign=middle;resizable=0;points=[];autosize=1;strokeColor=none;fillColor=none;fontSize=16;" vertex="1" parent="1">
          <mxGeometry x="80" y="300" width="60" height="30" as="geometry" />
        </mxCell>
        <mxCell id="pN44KU4ayDY2uJZS332P-35" value="" style="endArrow=classic;html=1;rounded=0;entryX=0;entryY=0.5;entryDx=0;entryDy=0;" edge="1" parent="1">
          <mxGeometry width="50" height="50" relative="1" as="geometry">
            <mxPoint x="140" y="249.5" as="sourcePoint" />
            <mxPoint x="220" y="249.5" as="targetPoint" />
          </mxGeometry>
        </mxCell>
        <mxCell id="pN44KU4ayDY2uJZS332P-36" value="报表统计" style="ellipse;whiteSpace=wrap;html=1;fontSize=14;" vertex="1" parent="1">
          <mxGeometry x="220" y="220" width="100" height="60" as="geometry" />
        </mxCell>
        <mxCell id="pN44KU4ayDY2uJZS332P-39" value="" style="shape=actor;whiteSpace=wrap;html=1;" vertex="1" parent="1">
          <mxGeometry x="70" y="180" width="80" height="120" as="geometry" />
        </mxCell>
        <mxCell id="pN44KU4ayDY2uJZS332P-40" value="" style="endArrow=classic;html=1;rounded=0;exitX=1;exitY=0.5;exitDx=0;exitDy=0;entryX=0;entryY=0.5;entryDx=0;entryDy=0;" edge="1" parent="1" source="pN44KU4ayDY2uJZS332P-36" target="pN44KU4ayDY2uJZS332P-42">
          <mxGeometry width="50" height="50" relative="1" as="geometry">
            <mxPoint x="390" y="320" as="sourcePoint" />
            <mxPoint x="390" y="180" as="targetPoint" />
          </mxGeometry>
        </mxCell>
        <mxCell id="pN44KU4ayDY2uJZS332P-42" value="整体统计" style="ellipse;whiteSpace=wrap;html=1;fontSize=14;" vertex="1" parent="1">
          <mxGeometry x="390" y="170" width="100" height="60" as="geometry" />
        </mxCell>
        <mxCell id="pN44KU4ayDY2uJZS332P-45" value="" style="endArrow=classic;html=1;rounded=0;exitX=1;exitY=0.5;exitDx=0;exitDy=0;entryX=0;entryY=0.5;entryDx=0;entryDy=0;" edge="1" parent="1" target="pN44KU4ayDY2uJZS332P-46" source="pN44KU4ayDY2uJZS332P-36">
          <mxGeometry width="50" height="50" relative="1" as="geometry">
            <mxPoint x="350" y="380" as="sourcePoint" />
            <mxPoint x="420" y="310" as="targetPoint" />
          </mxGeometry>
        </mxCell>
        <mxCell id="pN44KU4ayDY2uJZS332P-46" value="疾病统计" style="ellipse;whiteSpace=wrap;html=1;fontSize=14;" vertex="1" parent="1">
          <mxGeometry x="390" y="300" width="100" height="60" as="geometry" />
        </mxCell>
        <mxCell id="pN44KU4ayDY2uJZS332P-67" value="" style="endArrow=classic;html=1;rounded=0;exitX=1;exitY=0.5;exitDx=0;exitDy=0;entryX=0;entryY=0.5;entryDx=0;entryDy=0;" edge="1" parent="1" target="pN44KU4ayDY2uJZS332P-73" source="pN44KU4ayDY2uJZS332P-42">
          <mxGeometry width="50" height="50" relative="1" as="geometry">
            <mxPoint x="500" y="355" as="sourcePoint" />
            <mxPoint x="560" y="270" as="targetPoint" />
          </mxGeometry>
        </mxCell>
        <mxCell id="pN44KU4ayDY2uJZS332P-73" value="打印" style="ellipse;whiteSpace=wrap;html=1;fontSize=14;" vertex="1" parent="1">
          <mxGeometry x="530" y="130" width="100" height="60" as="geometry" />
        </mxCell>
        <mxCell id="pN44KU4ayDY2uJZS332P-75" value="" style="endArrow=classic;html=1;rounded=0;exitX=1;exitY=0.5;exitDx=0;exitDy=0;entryX=0;entryY=0.5;entryDx=0;entryDy=0;" edge="1" parent="1" source="pN44KU4ayDY2uJZS332P-42" target="pN44KU4ayDY2uJZS332P-76">
          <mxGeometry width="50" height="50" relative="1" as="geometry">
            <mxPoint x="390" y="320" as="sourcePoint" />
            <mxPoint x="550" y="250" as="targetPoint" />
          </mxGeometry>
        </mxCell>
        <mxCell id="pN44KU4ayDY2uJZS332P-76" value="下载" style="ellipse;whiteSpace=wrap;html=1;fontSize=14;" vertex="1" parent="1">
          <mxGeometry x="530" y="200" width="100" height="60" as="geometry" />
        </mxCell>
        <mxCell id="pN44KU4ayDY2uJZS332P-77" value="打印" style="ellipse;whiteSpace=wrap;html=1;fontSize=14;" vertex="1" parent="1">
          <mxGeometry x="530" y="270" width="100" height="60" as="geometry" />
        </mxCell>
        <mxCell id="pN44KU4ayDY2uJZS332P-78" value="下载" style="ellipse;whiteSpace=wrap;html=1;fontSize=14;" vertex="1" parent="1">
          <mxGeometry x="530" y="340" width="100" height="60" as="geometry" />
        </mxCell>
        <mxCell id="pN44KU4ayDY2uJZS332P-79" value="" style="endArrow=classic;html=1;rounded=0;entryX=0;entryY=0.5;entryDx=0;entryDy=0;exitX=1;exitY=0.5;exitDx=0;exitDy=0;" edge="1" parent="1" source="pN44KU4ayDY2uJZS332P-46" target="pN44KU4ayDY2uJZS332P-77">
          <mxGeometry width="50" height="50" relative="1" as="geometry">
            <mxPoint x="460" y="300" as="sourcePoint" />
            <mxPoint x="540" y="170" as="targetPoint" />
          </mxGeometry>
        </mxCell>
        <mxCell id="pN44KU4ayDY2uJZS332P-80" value="" style="endArrow=classic;html=1;rounded=0;exitX=1;exitY=0.5;exitDx=0;exitDy=0;entryX=0;entryY=0.5;entryDx=0;entryDy=0;" edge="1" parent="1" source="pN44KU4ayDY2uJZS332P-46" target="pN44KU4ayDY2uJZS332P-78">
          <mxGeometry width="50" height="50" relative="1" as="geometry">
            <mxPoint x="500" y="210" as="sourcePoint" />
            <mxPoint x="540" y="250" as="targetPoint" />
          </mxGeometry>
        </mxCell>
      </root>
    </mxGraphModel>
  </diagram>
</mxfile>
